<svg width="400" height="400" viewBox="0 0 680 680" role="img" xmlns="http://www.w3.org/2000/svg">
<title>Logo Semana Santa de Cádiz</title>
<desc>Nazareno con capirote dorado flanqueado por dos cirios sobre fondo circular morado oscuro</desc>
<circle cx="340" cy="340" r="328" fill="#150b25"/>
<circle cx="340" cy="340" r="326" fill="none" stroke="#c9922a" stroke-width="2"/>
<circle cx="340" cy="340" r="316" fill="none" stroke="#c9922a" stroke-width="0.6" opacity="0.45"/>
<circle cx="340" cy="340" r="290" fill="none" stroke="#c9922a" stroke-width="0.4" stroke-dasharray="3 7" opacity="0.35"/>
<g opacity="0.06" stroke="#e8c060" stroke-width="0.7">
  <line x1="340" y1="340" x2="340" y2="16"/>
  <line x1="340" y1="340" x2="614" y2="178"/>
  <line x1="340" y1="340" x2="614" y2="502"/>
  <line x1="340" y1="340" x2="340" y2="664"/>
  <line x1="340" y1="340" x2="66" y2="502"/>
  <line x1="340" y1="340" x2="66" y2="178"/>
  <line x1="340" y1="340" x2="656" y2="340"/>
  <line x1="340" y1="340" x2="24" y2="340"/>
  <line x1="340" y1="340" x2="524" y2="84"/>
  <line x1="340" y1="340" x2="156" y2="84"/>
  <line x1="340" y1="340" x2="524" y2="596"/>
  <line x1="340" y1="340" x2="156" y2="596"/>
</g>
<g fill="#c9922a" opacity="0.9">
  <polygon transform="translate(340,40)" points="0,-9 2,-2 9,0 2,2 0,9 -2,2 -9,0 -2,-2"/>
  <polygon transform="translate(340,640)" points="0,-9 2,-2 9,0 2,2 0,9 -2,2 -9,0 -2,-2"/>
  <polygon transform="translate(26,340)" points="0,-9 2,-2 9,0 2,2 0,9 -2,2 -9,0 -2,-2"/>
  <polygon transform="translate(654,340)" points="0,-9 2,-2 9,0 2,2 0,9 -2,2 -9,0 -2,-2"/>
</g>
<g fill="#c9922a" opacity="0.5">
  <polygon transform="translate(88,88)" points="0,-6 1.5,-1.5 6,0 1.5,1.5 0,6 -1.5,1.5 -6,0 -1.5,-1.5"/>
  <polygon transform="translate(592,88)" points="0,-6 1.5,-1.5 6,0 1.5,1.5 0,6 -1.5,1.5 -6,0 -1.5,-1.5"/>
  <polygon transform="translate(88,592)" points="0,-6 1.5,-1.5 6,0 1.5,1.5 0,6 -1.5,1.5 -6,0 -1.5,-1.5"/>
  <polygon transform="translate(592,592)" points="0,-6 1.5,-1.5 6,0 1.5,1.5 0,6 -1.5,1.5 -6,0 -1.5,-1.5"/>
</g>
<rect x="181" y="362" width="16" height="82" rx="2" fill="#f0e8d0"/>
<rect x="181" y="362" width="3" height="82" fill="#d8d0b8"/>
<ellipse cx="189" cy="446" rx="10" ry="3.5" fill="#d8ccaa" opacity="0.7"/>
<line x1="189" y1="362" x2="189" y2="353" stroke="#4a2e10" stroke-width="1.5" stroke-linecap="round"/>
<path d="M189,338 C183,345 181,354 185,360 C187,363 191,363 193,360 C197,354 195,345 189,338Z" fill="#f0c060"/>
<path d="M189,344 C186,349 185,355 187,359 C188,360 190,360 191,359 C193,355 192,349 189,344Z" fill="#fff8d0" opacity="0.85"/>
<rect x="483" y="362" width="16" height="82" rx="2" fill="#f0e8d0"/>
<rect x="496" y="362" width="3" height="82" fill="#d8d0b8"/>
<ellipse cx="491" cy="446" rx="10" ry="3.5" fill="#d8ccaa" opacity="0.7"/>
<line x1="491" y1="362" x2="491" y2="353" stroke="#4a2e10" stroke-width="1.5" stroke-linecap="round"/>
<path d="M491,338 C485,345 483,354 487,360 C489,363 493,363 495,360 C499,354 497,345 491,338Z" fill="#f0c060"/>
<path d="M491,344 C488,349 487,355 489,359 C490,360 492,360 493,359 C495,355 494,349 491,344Z" fill="#fff8d0" opacity="0.85"/>
<polygon points="278,300 402,300 440,496 240,496" fill="#7a5510" opacity="0.4"/>
<polygon points="275,298 405,298 444,494 236,494" fill="#c9922a"/>
<line x1="340" y1="298" x2="340" y2="494" stroke="#7a5510" stroke-width="1.8" opacity="0.3"/>
<line x1="308" y1="312" x2="264" y2="494" stroke="#7a5510" stroke-width="1" opacity="0.18"/>
<line x1="372" y1="312" x2="416" y2="494" stroke="#7a5510" stroke-width="1" opacity="0.18"/>
<line x1="244" y1="478" x2="436" y2="478" stroke="#ffe08a" stroke-width="1.2" opacity="0.45"/>
<polygon points="344,120 300,300 380,300" fill="#7a5510" opacity="0.35"/>
<polygon points="340,112 296,298 384,298" fill="#c9922a"/>
<line x1="340" y1="112" x2="340" y2="298" stroke="#7a5510" stroke-width="1.2" opacity="0.28"/>
<line x1="340" y1="112" x2="312" y2="298" stroke="#7a5510" stroke-width="0.7" opacity="0.18"/>
<line x1="340" y1="112" x2="368" y2="298" stroke="#7a5510" stroke-width="0.7" opacity="0.18"/>
<ellipse cx="340" cy="216" rx="17" ry="6.5" fill="#150b25"/>
<ellipse cx="340" cy="216" rx="13" ry="4.5" fill="#1e0f2e"/>
</svg>
